<svg width="125" height="115" viewBox="0 0 125 115" fill="none" xmlns="http://www.w3.org/2000/svg">
<path d="M44.3891 105.179C44.2784 104.859 44.1529 104.422 44.0898 104.204C43.7685 103.8 43.5397 103.583 43.1841 103.157C43.0278 102.979 43.0035 102.998 43.0184 102.988C41.9272 101.613 41.7034 99.7477 40.2466 98.2148C40.0231 97.9752 40.0061 97.9951 40.0179 97.9888C38.7079 95.8992 38.0035 93.4692 36.2249 91.2557C36.0379 90.9739 36.0011 91.0012 36.0175 90.9867C35.556 90.5754 35.5128 89.9876 35.1971 89.2147C35.0308 88.9828 34.9994 89.0039 35.0097 88.9884C34.858 88.8286 34.6959 88.6844 34.3998 88.2435C33.8953 87.1888 33.525 86.4305 33.0755 85.3635C32.7737 84.8241 32.5582 84.5867 32.1948 84.1591C32.0396 83.9754 31.9987 83.9959 32.0182 83.9817C31.5541 83.5748 31.5131 82.9857 31.1966 82.2132C31.0307 81.981 31.0005 81.9988 31.0165 81.989C30.2669 81.2715 30.1708 80.1467 29.229 79.1975C29.0206 78.9761 29.0054 78.9951 29.0157 78.9896C28.5596 78.577 28.5125 77.9889 28.1922 77.2147C28.023 76.9838 28.0023 76.9988 28.015 76.9921C26.9344 75.611 26.7006 73.7518 25.2498 72.2127C25.028 71.9715 25.0023 71.9969 25.0165 71.9872C24.5567 71.5759 24.5131 70.986 24.1899 70.2138C24.02 69.9835 24.0037 69.9982 24.0148 69.9929C23.2765 69.2745 23.1719 68.1641 22.2466 67.2111C22.041 66.9895 21.9931 67.0107 22.0011 66.9857C21.8401 66.8081 21.6711 66.6554 21.3855 66.1814C21.269 65.8602 21.1629 65.4388 21.1145 65.2269C20.2724 64.3187 20.1896 63.1789 19.2535 62.2171C19.0459 61.9923 18.9927 62.0103 18.9996 61.9831C18.8378 61.804 18.6689 61.6522 18.3857 61.1795C18.2712 60.8587 18.1576 60.4429 18.1024 60.2346C17.5581 59.6178 17.514 59.0186 17.2089 58.2201C17.0418 57.9805 16.9993 58.0001 17.0174 57.9853C16.5549 57.575 16.513 56.9861 16.1967 56.2126C16.0309 55.9802 16.0005 56.0031 16.011 55.9879C15.8595 55.8289 15.6974 55.6853 15.4007 55.2459C15.2661 54.9503 15.1392 54.4968 15.0681 54.2724C14.7712 53.8193 14.554 53.5828 14.1888 53.1555C14.0323 52.9724 14.0074 52.9969 14.0237 52.9864C13.5579 52.5782 13.5127 51.9871 13.195 51.209C13.0289 50.975 13.0011 51.0006 13.0131 50.9873C12.8617 50.8296 12.6983 50.6854 12.4005 50.2431C12.2661 49.945 12.1444 49.4642 12.0827 49.224C11.8584 48.8377 11.6958 48.6916 11.3991 48.2462C11.2651 47.9469 11.1434 47.4689 11.0815 47.2302C10.7659 46.7986 10.5381 46.5787 10.1775 46.1548C10.0186 45.9778 10.0212 45.9857 10.0276 45.9873C8.04697 41.1364 4.1702 37.2282 3.10156 31.55C5.09766 28.3885 7.50339 28.0545 9.44131 30.7227C11.858 34.0501 17.1735 35.2825 16.766 40.7583C16.7291 41.2532 17.9889 42.3003 19.4364 42.6107C20.5585 42.9362 21.1089 43.424 21.6678 44.4132C21.9435 45.182 22.0499 45.6357 22.3312 46.3787C22.8587 46.9455 23.1978 47.2374 23.7504 47.7882C23.9743 48.0347 23.986 48.0142 23.9755 48.0182C24.7341 48.7273 24.8287 49.8532 25.7688 50.8033C25.9764 51.0254 25.9956 51.004 25.9838 51.0112C26.4413 51.4234 26.4871 52.0123 26.8099 52.785C26.9804 53.0149 26.9969 53.0012 26.986 53.0067C28.6047 56.2885 30.7486 59.2735 32.5551 62.8452C33.0972 63.8819 33.4641 64.6224 33.9142 65.6641C34.2292 66.1844 34.4479 66.416 34.8088 66.8417C34.9641 67.0233 35.0023 66.9996 34.9889 67.0178C35.1389 67.1773 35.3024 67.3186 35.5974 67.7561C35.729 68.0523 35.8541 68.5323 35.9169 68.7722C36.2341 69.202 36.4614 69.4202 36.8197 69.8426C36.9777 70.0189 36.9975 70.0012 36.9852 70.009C37.4387 70.4223 37.4882 71.0069 37.7949 71.7854C37.9574 72.02 38.0012 72.004 37.9805 72.0166C39.0803 73.3845 39.2945 75.2555 40.7522 76.7857C40.9751 77.0256 40.9945 77.0037 40.9817 77.0113C42.0698 78.3884 42.2976 80.2517 43.7541 81.7861C43.9776 82.0257 43.9944 82.0054 43.9834 82.0114C44.4414 82.4234 44.4869 83.0134 44.8123 83.786C44.9837 84.0157 44.9941 84.0037 44.9852 84.0067C45.7239 84.7317 45.8314 85.8487 46.7717 86.8021C46.9806 87.0234 46.9938 87.0055 46.9842 87.0101C47.4402 87.4229 47.4872 88.012 47.8117 88.7847C47.9834 89.0141 47.9962 89.0024 47.9868 89.0062C49.0603 90.3914 49.3 92.2474 50.7542 93.7854C50.978 94.0249 50.995 94.0049 50.9842 94.011C51.4415 94.4235 51.4869 95.0133 51.812 95.7858C51.9833 96.0155 51.9968 96.0024 51.9876 96.0063C52.4434 96.4243 52.4852 97.0225 52.8391 97.7876C53.0237 98.01 52.9792 98.0232 52.9883 98.0019C53.2141 98.2104 53.4337 98.4374 53.8081 98.8434C53.9598 99.0253 54.0058 99.0034 53.9932 99.0256C54.4328 99.4394 55.0167 99.4861 55.7695 99.8386C55.9832 100.027 55.9987 100.002 55.9904 100.012C56.2184 100.233 56.4523 100.445 56.8375 100.84C56.9913 101.021 57.429 101.14 57.6464 101.204C61.364 103.478 64.8517 102.483 68.7386 101.173C75.2337 102.284 76.5363 104.245 74.2118 109.402C73.857 109.97 73.6954 110.185 73.2533 110.69C72.9728 110.98 72.9874 110.985 72.9868 110.978C66.3319 113.783 59.605 113.565 52.4235 111.212C52.0142 110.97 52.0005 110.998 52.0082 110.986C51.5729 110.564 50.9875 110.514 50.2336 110.16C50.0208 109.97 50.0011 109.999 50.0103 109.986C49.78 109.766 49.5451 109.554 49.1643 109.154C49.0137 108.971 48.5696 108.843 48.3472 108.78C47.9142 108.643 47.7036 108.569 47.2735 108.242C47.054 107.989 46.9988 108.006 47.0043 107.977C46.8369 107.796 46.664 107.644 46.257 107.237C46.023 106.982 45.9993 107.001 46.0082 106.989C45.8473 106.82 45.6774 106.664 45.2776 106.249C45.0476 105.99 44.9917 106.003 45.0004 105.976C44.8394 105.799 44.6696 105.649 44.3891 105.179Z" fill="#02AEDA"/>
<path d="M91.6256 3.41363C92.8729 2.86483 93.6339 2.53312 94.6773 2.06524C99.7179 1.0241 104.423 1.33395 109.45 2.81774C115.634 6.00489 120.254 10.1146 122.911 16.5792C124.736 23.5375 123.803 29.9478 121.231 36.6504C121.01 37.0556 120.995 36.9953 121.026 36.9966C120.338 37.4267 119.674 37.9208 118.774 38.7792C113.459 38.4747 112.396 37.373 111.544 31.4989C112.436 27.6502 112.738 24.1575 112.173 20.2933C108.791 15.3028 104.829 12.1818 98.3718 12.8416C95.9839 11.9059 93.749 13.5158 91.9342 12.3392C88.5672 10.1564 88.388 7.30393 91.6256 3.41363Z" fill="#05A783"/>
<path d="M91.7448 3.18317C89.8132 8.64271 94.2092 10.1634 97.7117 12.5646C88.2812 18.6273 87.1054 22.9226 92.2512 32.9026C93.2801 34.898 94.1898 36.7885 93 39.5C90.9203 41.2486 90.1838 40.7272 89.4087 38.7685C88.6166 36.7667 87.5928 34.854 86.432 33.0309C85.1273 30.9818 83.6493 29.344 80.799 29.9356C78.0421 30.5077 77.592 28.8897 77.4299 26.4938C77.1428 22.248 78.2677 18.3531 79.7938 14.1588C81.9061 8.30235 86.0205 5.07422 91.7448 3.18317Z" fill="#06A796"/>
<path d="M20.2886 43.7068C14.6076 42.7287 13.866 36.4329 9.28651 34.1434C7.74557 33.373 6.75358 31.5031 4.31948 31.9615C1.12846 32.4811 1.89594 29.8989 1.73217 28.7576C0.651086 21.223 2.03291 14.3703 8.42193 8.8374C10.4961 7.79818 12.234 7.37203 14.2657 7.41477C17.893 7.4911 18.3088 7.73962 17.5452 11.8814C17.4155 12.4728 17.3661 12.71 17.1397 13.2645C16.4892 14.1279 15.8406 14.499 15.2394 15.4157C11.8914 19.9876 10.8682 24.5175 13.5575 29.7765C13.7637 30.0739 13.889 30.5223 13.9446 30.7484C14.2339 31.1946 14.4562 31.4258 14.8402 31.835C15.0135 32.0019 14.9876 32.0092 14.9936 31.9971C15.4335 32.4205 15.4869 33.013 15.8333 33.7838C16.0169 34.0073 15.9854 34.016 15.9925 34.0014C16.1503 34.1392 16.3009 34.2917 16.6101 34.7239C16.7686 35.0037 16.8888 35.4848 16.9445 35.7264C18.0372 37.3878 18.2948 39.2409 19.7802 40.7725C20.0165 41.0021 19.9886 41.0114 19.995 40.9982C20.4942 41.7176 20.9435 42.461 20.2886 43.7068Z" fill="#06ABCD"/>
<path d="M89.7965 68.1484C92.5654 60.8477 96.1818 54.395 100.733 48.0796C108.131 47.5471 110.535 49.7154 109.169 55.6189C106.824 62.3381 103.258 68.0085 99.3803 73.8458C97.4006 75.4139 95.7673 76.2748 94.5104 73.5404C93.5293 71.4059 91.1117 71.1798 89.5112 69.4696C89.5159 68.8954 89.5597 68.6671 89.7965 68.1484Z" fill="#05A8A3"/>
<path d="M109.443 55.8264C108.092 51.945 104.43 50.4973 101.217 48.1146C103.554 42.0611 106.966 36.7517 110.609 31.211C111.03 30.7291 111.199 30.466 111.626 30.595C114.171 33.0876 115.465 36.1616 118.674 37.8054C119.76 38.9951 118.719 39.6235 118.26 40.7133C115.386 45.9411 113.157 51.1379 109.443 55.8264Z" fill="#06A796"/>
<path d="M89.697 69.2262C92.7666 66.3218 94.7877 66.1832 96.1089 70.3899C96.5085 71.6624 97.9035 72.6222 98.9672 73.8752C97.3889 78.6777 94.187 82.4362 91.363 86.7943C89.5048 88.581 89.2722 91.2015 86.693 92.3891C83.2579 92.3876 80.9398 91.1711 79.6648 87.792C81.3384 80.6651 85.9188 75.3731 89.697 69.2262Z" fill="#04AAB7"/>
<path d="M79.7094 14.12C79.5832 17.9335 77.4423 21.7645 78.4614 26.9445C79.7997 23.0306 81.3945 24.1736 83.3787 25.6012C88.2113 29.0781 90.2508 34.3452 92.8584 39.6906C90.5743 44.3831 86.4735 45.4053 83.6978 41.8511C78.0616 34.6342 73.8647 24.849 79.7094 14.12Z" fill="#05A8A3"/>
<path d="M9.31885 6.80818C18.763 -2.45716 35.9447 -0.377691 43.8431 10.6686C48.1126 16.6395 51.1413 23.2835 54.5686 30.1191C54.7818 30.6743 54.8063 30.9269 54.7128 31.5404C52.558 33.2943 51.12 32.2942 50.0245 30.61C48.0334 27.549 45.606 24.7895 44.0186 21.4422C42.5224 18.2873 40.5609 15.4609 38.1437 12.8406C32.2544 6.45669 25.3438 4.20579 16.9486 6.55194C14.825 7.1454 12.6873 7.70901 10.1867 7.84614C9.74568 7.49157 9.61238 7.30325 9.31885 6.80818Z" fill="#0AA4B2"/>
<path d="M54.5657 30.567C61.2586 39.4153 66.5625 49.11 71.4325 59.0506C72.6287 61.4924 71.6317 63.7322 69.8168 65.3243C67.19 67.6286 64.3608 67.2728 61.4713 64.815C61.1877 64.3223 61.1601 64.0888 61.2325 63.5176C66.7705 60.5571 67.2307 59.4262 64.0652 54.1993C60.5587 48.4091 57.0756 42.603 53.6383 36.7734C52.7319 35.2362 50.5692 33.2867 53.7036 31.2015C53.9918 31.0055 54.3738 30.7124 54.5657 30.567Z" fill="#0AA4B2"/>
<path d="M13.7805 29.6672C9.47427 25.2199 11.0413 20.35 13.8902 15.2458C14.5521 14.4546 15.0782 13.9234 15.8068 13.1983C16.0065 13.0015 16.001 13.0007 16.003 13.0046C19.9015 8.63729 23.7887 7.45564 28.7132 9.14535C34.8301 11.2442 39.5602 17.0055 39.4607 22.9717C38.8636 23.4629 38.5865 23.6081 37.8405 23.7399C36.7311 22.7682 35.9552 21.8733 35.4719 20.8415C32.1692 13.7889 26.7593 11.1293 20.2624 13.4384C14.7268 15.4059 12.0829 21.3036 13.605 28.2862C13.6755 28.6096 13.7334 28.9357 13.7805 29.6672Z" fill="#0BA4B4"/>
<path d="M9.22574 8.76093C3.64736 15.5816 -0.364087 22.5122 3.83384 31.6843C5.16243 36.7989 9.13234 40.3184 9.99216 45.6186C0.978825 35.8021 -2.09268 23.4576 3.53653 12.8904C4.66233 10.7771 6.29586 9.19655 8.23975 7.37519C8.65985 7.30071 8.80948 7.44873 9.2294 7.75998C9.48772 8.13332 9.47579 8.34346 9.22574 8.76093Z" fill="#0AA4B2"/>
<path d="M90.0084 68.7059C87.8516 75.1654 82.9088 79.9133 81.0482 86.6441C81.8116 91.6619 79.7691 94.7383 75.2641 96.4963C74.6385 96.1302 74.4109 95.9479 74.0505 95.3488C78.0813 85.4531 83.2641 76.5654 89.6981 68.0463C89.993 68.0464 89.9963 68.2349 90.0084 68.7059Z" fill="#0BA4B4"/>
<path d="M85.6866 91.2221C87.5506 89.8307 89.08 88.6348 90.8623 87.2297C88.312 94.1786 84.8313 100.942 78.9865 106.818C77.7546 106.576 77.1013 106.268 77.0194 105.524C76.6449 102.124 82.0526 92.9984 85.6866 91.2221Z" fill="#0BA4B4"/>
<path d="M52.2371 111.266C58.7197 112.175 65.4268 112.459 72.5617 110.989C66.2625 115.279 59.3994 114.747 52.2371 111.266Z" fill="#0BA4B4"/>
<path d="M61.4121 64.4175C57.6126 60.1198 55.4132 54.9083 53.1685 49.0414C53.4349 48.2352 53.5992 48.0983 53.7382 48.1205C58.1191 48.8196 64.2857 59.4073 62.3727 63.7828C62.0007 63.9994 61.6089 64.279 61.4121 64.4175Z" fill="#0AA4B2"/>
<path d="M121.291 36.8222C122.429 30.734 123.593 24.3863 122.987 17.3853C126.223 23.7396 124.554 30.2116 121.291 36.8222Z" fill="#0AA4B2"/>
<path d="M47.8205 40.7572C44.7517 37.0755 42.4982 33.2157 40.3998 28.8511C40.2432 28.2451 40.2762 27.9419 40.607 27.2953C41.5306 26.6984 42.3937 26.37 42.8005 26.8075C46.2253 30.4901 49.924 34.0633 49.3841 40.0495C48.8146 40.5224 48.5438 40.657 47.8205 40.7572Z" fill="#0BA4B4"/>
<path d="M32.7635 62.7751C29.7693 60.6543 27.9503 57.4778 27.0159 53.3774C29.9232 55.5202 31.7016 58.753 32.7635 62.7751Z" fill="#0BA4B4"/>
<path d="M69.4021 101.964C65.4574 102.777 61.8902 103.99 58.1414 101.507C61.7968 102.361 65.5462 101.711 69.8255 100.307C70.4775 101.107 70.2554 101.557 69.4021 101.964Z" fill="#0BA4B4"/>
<path d="M109.585 2.78117C105.195 2.3525 100.567 1.76959 95.4177 1.9542C99.8276 0.312465 104.627 0.499492 109.585 2.78117Z" fill="#0AA4B2"/>
<path d="M52.9592 49.0376C50.5037 46.9309 49.0461 44.151 47.5409 41.0052C47.3681 40.7227 47.6843 40.3601 47.8431 40.1794C52.1753 39.0408 54.996 43.0264 53.5161 48.63C53.1183 48.9078 53.012 48.994 52.9592 49.0376Z" fill="#0BA4B4"/>
<path d="M20.1224 44.2531C19.9822 43.256 19.9845 42.4989 19.9941 41.3634C22.3432 42.459 22.9392 45.0071 23.9389 47.6816C23.531 48.0359 23.0876 48.0372 22.3121 48.0223C21.5824 47.5844 21.1449 47.19 20.9949 46.2979C20.7425 45.5022 20.5037 44.9977 20.1224 44.2531Z" fill="#0BA4B4"/>
<path d="M36.0708 91.3264C38.2648 92.4992 39.4918 94.6453 39.9888 97.6263C37.6206 96.5667 37.0823 93.9856 36.0708 91.3264Z" fill="#0BA4B4"/>
<path d="M111.982 30.5937C111.713 30.9863 111.543 30.9856 111.117 30.9885C111.6 27.6541 112.336 24.3158 111.939 20.4161C113.529 23.3586 113.056 26.7754 111.982 30.5937Z" fill="#0AA4B2"/>
<path d="M43.9434 81.6849C42.2114 81.123 41.3813 79.586 41.0115 77.3638C42.8042 77.8794 43.317 79.6386 43.9434 81.6849Z" fill="#0BA4B4"/>
<path d="M40.0569 98.3161C41.7597 98.8975 42.6131 100.418 42.9902 102.634C41.1929 102.123 40.6814 100.363 40.0569 98.3161Z" fill="#0BA4B4"/>
<path d="M50.9436 93.6842C49.2089 93.1214 48.3585 91.5972 48.0176 89.3558C49.8028 89.8806 50.3178 91.6378 50.9436 93.6842Z" fill="#0BA4B4"/>
<path d="M40.9411 76.6848C39.2381 76.1068 38.3654 74.5996 38.0012 72.3736C39.8095 72.8751 40.3142 74.6396 40.9411 76.6848Z" fill="#0BA4B4"/>
<path d="M25.0625 72.3122C26.7959 72.8757 27.6417 74.4024 27.9873 76.6398C26.2005 76.1165 25.6853 74.3599 25.0625 72.3122Z" fill="#0BA4B4"/>
<path d="M40.4081 28.412C39.3731 27.1183 38.5361 25.6884 37.5353 23.9924C37.3715 23.7264 37.6857 23.3619 37.8437 23.1803C41.9376 22.447 42.5262 23.114 41.4316 27.6872C40.9999 28 40.6061 28.2757 40.4081 28.412Z" fill="#0BA4B4"/>
<path d="M19.9691 40.6637C18.3287 40.0335 17.4586 38.5204 17.0601 36.3107C18.7716 36.8857 19.3135 38.6277 19.9691 40.6637Z" fill="#0BA4B4"/>
<path d="M118.357 40.8555C118.312 40.2016 118.541 39.3905 118.864 38.2761C119.471 37.7014 119.985 37.43 120.777 37.0782C120.248 38.2314 119.439 39.4649 118.357 40.8555Z" fill="#0AA4B2"/>
<path d="M29.0559 79.2955C29.6391 79.7758 30.2576 80.5754 30.9543 81.6772C29.9894 81.5163 29.2857 80.7746 29.0559 79.2955Z" fill="#0BA4B4"/>
<path d="M19.0764 62.3124C19.6693 62.7943 20.2926 63.5963 20.9911 64.7066C20.0259 64.5393 19.3052 63.8006 19.0764 62.3124Z" fill="#0BA4B4"/>
<path d="M46.9453 86.7041C46.361 86.222 45.7414 85.4207 45.0491 84.3145C46.0098 84.4847 46.7164 85.2259 46.9453 86.7041Z" fill="#0BA4B4"/>
<path d="M72.1511 98.4025C72.0336 96.8349 72.5426 95.9587 73.653 95.0988C73.9177 94.9321 74.1087 95.0988 74.2041 95.1822C75.6155 96.6431 76.5802 98.0189 73.7647 99.3891C72.955 99.2226 72.6606 99.0463 72.1511 98.4025Z" fill="#0BA4B4"/>
<path d="M22.0718 67.3071C22.6555 67.7861 23.2699 68.5827 23.9551 69.6835C22.9978 69.515 22.2923 68.7798 22.0718 67.3071Z" fill="#0BA4B4"/>
<path d="M25.9411 50.7061C25.3545 50.2273 24.7325 49.4292 24.0378 48.3266C25.0099 48.4839 25.7098 49.2286 25.9411 50.7061Z" fill="#0BA4B4"/>
<path d="M73.29 110.945C72.9559 110.797 72.9389 110.613 72.9153 110.154C73.6681 109.316 73.7271 108.124 75.1219 107.852C75.658 108.049 75.8373 108.208 76.0423 108.725C75.4827 110.009 74.7592 110.748 73.29 110.945Z" fill="#0BA4B4"/>
<path d="M51.9472 95.7215C51.7011 95.5298 51.4188 95.0443 51.0549 94.2878C51.2859 94.4872 51.5984 94.9574 51.9472 95.7215Z" fill="#0BA4B4"/>
<path d="M31.0657 82.2738C31.3136 82.4631 31.5964 82.9452 31.9585 83.6974C31.7254 83.5005 31.413 83.0335 31.0657 82.2738Z" fill="#0BA4B4"/>
<path d="M44.9472 83.7219C44.7012 83.5302 44.4185 83.0447 44.0542 82.2883C44.2852 82.4876 44.5978 82.9578 44.9472 83.7219Z" fill="#0BA4B4"/>
<path d="M47.9476 88.72C47.7015 88.5282 47.4196 88.0424 47.0562 87.2856C47.287 87.4851 47.5994 87.9556 47.9476 88.72Z" fill="#0BA4B4"/>
<path d="M35.0645 89.2761C35.3125 89.4657 35.5943 89.9486 35.955 90.7018C35.7221 90.5045 35.4101 90.0369 35.0645 89.2761Z" fill="#0BA4B4"/>
<path d="M15.9713 33.7137C15.7441 33.5107 15.4714 33.0141 15.0991 32.2513C15.3083 32.4634 15.6171 32.9418 15.9713 33.7137Z" fill="#0BA4B4"/>
<path d="M52.974 97.7173C52.7319 97.5248 52.44 97.0397 52.0632 96.2823C52.2937 96.4817 52.6089 96.9531 52.974 97.7173Z" fill="#0BA4B4"/>
<path d="M55.8186 99.7821C55.4639 99.8159 54.9445 99.6046 54.2029 99.2206C54.5384 99.2109 55.0961 99.3739 55.8186 99.7821Z" fill="#0BA4B4"/>
<path d="M77.9617 107.718C77.5942 108.371 77.1147 108.665 76.3515 109.021C76.0677 109.083 75.959 108.921 75.9047 108.839C75.4108 107.926 75.7133 107.349 76.8561 106.931C77.4382 107.073 77.644 107.216 77.9617 107.718Z" fill="#0BA4B4"/>
<path d="M50.1843 110.216C50.5392 110.187 51.0576 110.403 51.796 110.797C51.4599 110.803 50.9039 110.632 50.1843 110.216Z" fill="#0BA4B4"/>
<path d="M28.0588 77.2774C28.304 77.4698 28.5849 77.9557 28.9459 78.7129C28.7156 78.5131 28.4051 78.0421 28.0588 77.2774Z" fill="#0BA4B4"/>
<path d="M26.9444 52.7214C26.6983 52.53 26.4161 52.045 26.053 51.2892C26.2841 51.4882 26.5961 51.9581 26.9444 52.7214Z" fill="#0BA4B4"/>
<path d="M17.0737 58.2789C17.3217 58.478 17.6013 58.9756 17.9642 59.7497C17.7334 59.5433 17.4194 59.0604 17.0737 58.2789Z" fill="#0BA4B4"/>
<path d="M37.9274 71.726C37.6813 71.5331 37.4049 71.0461 37.0508 70.288C37.2811 70.4885 37.5891 70.9603 37.9274 71.726Z" fill="#0BA4B4"/>
<path d="M24.0569 70.2767C24.3034 70.4675 24.5867 70.9516 24.9504 71.7066C24.7184 71.5083 24.4061 71.0391 24.0569 70.2767Z" fill="#0BA4B4"/>
<path d="M16.0654 56.2733C16.3131 56.4633 16.5952 56.9464 16.9565 57.7C16.7237 57.5024 16.4118 57.0345 16.0654 56.2733Z" fill="#0BA4B4"/>
<path d="M13.0645 51.2693C13.3133 51.4604 13.5975 51.9459 13.9609 52.7036C13.7267 52.5051 13.4132 52.0344 13.0645 51.2693Z" fill="#0AA4B2"/>
<path d="M16.7302 34.779C16.5683 34.8012 16.3855 34.584 16.1099 34.1695C16.3048 34.0851 16.5356 34.2742 16.7302 34.779Z" fill="#0BA4B4"/>
<path d="M14.127 53.204C14.3052 53.1535 14.5397 53.375 14.8665 53.8425C14.7385 53.8438 14.48 53.6397 14.127 53.204Z" fill="#0AA4B2"/>
<path d="M8.63403 7.36597C8.634 6.98854 8.77185 6.8371 9.0412 6.59988C9.15872 6.5014 9.58203 6.75249 9.793 6.87921C10.3655 7.51505 10.2771 7.9278 9.3735 8.12425C9.00827 8.00432 8.75795 7.57924 8.63403 7.36597Z" fill="#0AA4B2"/>
<path d="M43.1274 103.206C43.3037 103.144 43.545 103.349 43.8894 103.79C43.693 103.898 43.4264 103.713 43.1274 103.206Z" fill="#0BA4B4"/>
<path d="M44.3015 105.095C44.4871 105.068 44.6674 105.299 44.9143 105.751C44.6833 105.851 44.4551 105.646 44.3015 105.095Z" fill="#0BA4B4"/>
<path d="M45.1411 106.213C45.3196 106.148 45.5547 106.348 45.8852 106.784C45.6888 106.894 45.4278 106.714 45.1411 106.213Z" fill="#0BA4B4"/>
<path d="M46.1216 107.203C46.2958 107.137 46.5351 107.333 46.8755 107.759C46.6783 107.877 46.415 107.701 46.1216 107.203Z" fill="#0BA4B4"/>
<path d="M78.9856 107.004C78.9501 107.377 78.7548 107.631 78.2831 107.955C78.0736 108.077 77.9406 107.904 77.8748 107.817C77.6889 107.327 77.8078 107.003 78.4189 106.773C78.7062 106.8 78.8928 106.935 78.9856 107.004Z" fill="#0BA4B4"/>
<path d="M47.1641 108.195C47.3254 108.095 47.5737 108.241 47.962 108.572C47.7856 108.761 47.502 108.656 47.1641 108.195Z" fill="#0BA4B4"/>
<path d="M49.1155 109.197C49.2908 109.135 49.5334 109.339 49.8807 109.778C49.6831 109.89 49.4156 109.707 49.1155 109.197Z" fill="#0BA4B4"/>
<path d="M15.2944 55.1789C15.4785 55.142 15.664 55.357 15.922 55.7839C15.7042 55.8887 15.4712 55.7004 15.2944 55.1789Z" fill="#0BA4B4"/>
<path d="M14.9056 31.7771C14.7523 31.8116 14.5145 31.5954 14.1501 31.164C14.3295 31.0795 14.5953 31.272 14.9056 31.7771Z" fill="#0BA4B4"/>
<path d="M56.8893 100.795C56.7144 100.857 56.4711 100.654 56.1221 100.216C56.319 100.104 56.5872 100.286 56.8893 100.795Z" fill="#0BA4B4"/>
<path d="M70.0032 99.9986C70.0609 99.6261 70.2533 99.3711 70.9039 99.3633C71.1625 99.757 71.0343 99.9573 70.5499 100.173C70.1935 100.189 70.0665 100.062 70.0032 99.9986Z" fill="#0BA4B4"/>
<path d="M70.9961 98.9922C71.0591 98.6254 71.2505 98.3706 71.7253 98.0528C71.9357 97.9349 72.0531 98.0802 72.1111 98.1534C72.2889 98.6695 72.1476 99.016 71.4721 99.2215C71.1636 99.1637 71.0517 99.0496 70.9961 98.9922Z" fill="#0BA4B4"/>
<path d="M53.8665 98.7969C53.6895 98.8507 53.4564 98.6357 53.1289 98.1805C53.3243 98.0864 53.5829 98.2824 53.8665 98.7969Z" fill="#0BA4B4"/>
<path d="M18.2947 61.0967C18.4795 61.0707 18.6604 61.304 18.9103 61.7572C18.679 61.8577 18.4495 61.6506 18.2947 61.0967Z" fill="#0BA4B4"/>
<path d="M21.2932 66.099C21.4774 66.0737 21.659 66.3079 21.9116 66.7618C21.681 66.8617 21.4503 66.654 21.2932 66.099Z" fill="#0BA4B4"/>
<path d="M34.8689 66.794C34.6916 66.8466 34.4568 66.6292 34.1287 66.1681C34.3226 66.079 34.5813 66.2789 34.8689 66.794Z" fill="#0BA4B4"/>
<path d="M35.7005 67.8247C35.5161 67.8629 35.3308 67.6495 35.0745 67.224C35.2919 67.1187 35.5239 67.3057 35.7005 67.8247Z" fill="#0BA4B4"/>
<path d="M10.1189 46.2048C10.296 46.1433 10.5381 46.35 10.8824 46.7947C10.685 46.9021 10.418 46.7155 10.1189 46.2048Z" fill="#0AA4B2"/>
<path d="M36.8791 69.7923C36.7032 69.8531 36.4625 69.6474 36.1179 69.207C36.3148 69.0982 36.5816 69.2828 36.8791 69.7923Z" fill="#0BA4B4"/>
<path d="M34.2937 88.1762C34.4787 88.1391 34.6643 88.3548 34.9213 88.7835C34.7022 88.8885 34.4694 88.6993 34.2937 88.1762Z" fill="#0BA4B4"/>
<path d="M12.2954 50.1746C12.4808 50.1371 12.6675 50.3531 12.9258 50.7836C12.7071 50.8879 12.4736 50.698 12.2954 50.1746Z" fill="#0AA4B2"/>
<path d="M11.2944 48.1767C11.4795 48.1406 11.6656 48.3584 11.9223 48.7921C11.7048 48.8926 11.4724 48.7001 11.2944 48.1767Z" fill="#0AA4B2"/>
<path d="M32.1328 84.207C32.3105 84.1582 32.5433 84.3807 32.8673 84.8489C32.6735 84.9322 32.4165 84.7267 32.1328 84.207Z" fill="#0BA4B4"/>
<path d="M71.0023 99.335C71.3892 98.9576 71.6131 98.7497 72.0022 98.3833C72.7818 97.4176 73.3947 96.6087 74.1535 95.5326C76.8524 93.0651 78.7617 90.3374 80.7954 87.2836C83.2066 87.3856 83.6856 89.928 85.7987 90.8761C83.6671 96.0714 81.3132 101.116 78.8327 106.481C78.5169 107.017 78.3211 107.227 77.964 107.581C77.3199 107.988 76.8309 108.245 76.0961 108.63C75.0711 109.068 74.2918 109.378 73.2106 109.783C73.3215 106.677 72.2794 104.148 69.2422 102.236C69.3009 101.572 69.5904 101.105 70.0366 100.414C70.4093 99.9616 70.6252 99.734 71.0023 99.335Z" fill="#06ABCD"/>
<path d="M20.9824 46.2026C21.2446 46.5 21.5078 46.9935 21.8755 47.7465C21.6478 47.4703 21.3156 46.9345 20.9824 46.2026Z" fill="#06ABCD"/>
<path d="M9.00302 8.24529C9.231 7.78387 9.45274 7.56248 9.83879 7.17304C13.0882 5.80785 15.9233 4.05819 19.2368 3.34605C30.0824 1.01502 39.2628 7.58237 43.8763 15.4523C46.9017 20.6132 49.9646 25.7204 53.7599 30.7644C56.4162 37.7712 60.9288 43.3696 64.3799 49.5615C65.6668 51.8704 67.1592 54.0653 68.4308 56.3819C69.5701 58.4575 70.4225 60.7416 68.994 62.9571C67.4284 65.3851 65.0137 64.7834 62.3591 64.1078C59.8577 58.7475 57.14 53.8274 53.3443 49.1536C51.9246 45.9011 50.8097 42.8512 48.2428 40.2325C46.7544 35.6307 44.1537 32.0369 41.2153 28.2566C40.5081 26.2887 39.7826 24.7075 38.2356 23.2261C34.0611 12.2483 28.8028 9.73859 16.3866 12.9362C15.4164 9.24763 12.1927 9.68194 9.32225 8.99462C8.98763 8.96825 8.9977 8.48629 9.00302 8.24529Z" fill="#03ABB8"/>
</svg>
